<?xml version="1.0"?><svg version="1.2" baseProfile="tiny-ps" viewBox="0 0 264 264" xmlns="http://www.w3.org/2000/svg" xmlns:xlink="http://www.w3.org/1999/xlink"><title>Havenpoint</title><g><g fill="#fcfefe" transform="matrix(.1 0 0 -.1 0 264)"><path d="M0 1320V0h2640v2640H0V1320z"/></g><g fill="#a6cbd1" transform="matrix(.1 0 0 -.1 0 264)"><path d="M0 1320V0h2640v2640H0V1320zm1149 934c312-41 617-149 842-299l96-64 84-89 85-89 42-80 42-80 15-64 15-64v-60c-1-169-73-319-222-464-205-199-529-345-911-411l-122-21-149-10c-81-6-150-9-152-7s26 40 62 83c36 44 85 109 108 145 48 72 100 170 90 170-3 0-19-9-35-21-80-57-265-126-424-160l-100-20-99-6-98-6 55 81c104 149 175 316 202 471l15 86v190l-15 85c-28 160-94 319-190 460l-54 80h52c190-1 459-76 636-178 39-22 71-37 71-33 0 35-178 308-237 363-13 12-23 26-23 31v10l103-7c56-4 153-14 216-22zm-63-115c5-8 30-46 56-86 66-99 123-220 160-338 17-55 41-126 55-158l24-58 8-70 9-70-9-67-9-66-34-80c-18-45-46-117-61-161-43-125-121-272-192-358-13-16-23-33-23-39v-11l98 6c269 18 513 95 710 224l57 37 85 86 85 85 34 58 35 59 23 80 23 80v146l-23 80-23 80-35 59-34 58-95 95-96 95-79 46c-197 115-410 178-656 195l-102 7 9-14zm-572-171c9-13 39-69 66-125l50-101 26-99 27-98 1-170 1-170-28-100-28-100-49-100c-27-55-58-115-70-132l-22-33h40c22 0 75 5 116 11l76 10 85 28 85 29 78 43 77 44 75 75 75 75 32 60c17 33 38 88 47 121l16 62v134l-16 62c-9 33-29 87-46 118l-30 57-55 60-54 60-73 49c-40 27-109 64-152 82l-79 33-90 18c-49 10-114 19-144 19h-53l16-22z"/></g><g fill="#09defe" transform="matrix(.1 0 0 -.1 0 264)"><path d="M0 1320V0h2640v2640H0V1320zm1100 944 135-14 128-30c324-74 594-206 781-381l75-70 45-67c24-37 55-95 69-128l26-61 10-77 9-77-10-72-10-72-28-67c-134-320-561-575-1120-668l-125-21-144-6-145-6 56 66c75 88 138 177 182 258l36 65-113-55-112-56-97-28c-53-15-136-34-185-42-106-17-253-30-253-22 0 3 24 39 53 80 70 97 129 213 166 323l30 90 17 99 16 100-6 95c-15 223-91 431-230 625l-36 50 15 3c29 7 228-18 318-39 117-27 272-87 360-138 37-22 67-38 67-35s-12 28-26 57c-39 76-102 172-172 258-34 43-62 79-62 81 0 6 139-2 280-18zm-10-119c0-4 24-44 54-88 84-128 129-226 172-372 12-44 35-109 50-145l26-64 5-81 5-80-16-63c-8-34-25-81-36-105-12-23-37-89-56-147l-36-105-45-85c-25-47-67-116-95-154-27-37-47-70-45-73 7-7 227 15 314 32 174 33 349 102 483 191l75 49 75 75 75 76 38 64c46 79 75 170 83 259l6 66-16 75-16 75-34 70-35 70-54 66-54 65-67 53c-203 162-433 242-788 276l-68 7v-7zm-580-159c0-3 14-28 31-56 61-99 112-239 140-382l10-53v-260l-29-116-30-115-36-79c-20-44-51-101-68-128-17-26-28-50-25-53s49 0 104 6l98 12 90 29 90 29 75 41 75 42 80 81 81 81 32 61 31 61 16 64c73 312-156 610-545 709-79 20-220 37-220 26z"/></g><g fill="#323232" transform="matrix(.1 0 0 -.1 0 264)"><path d="M0 1320V0h2640v2640H0V1320zm1100 944 135-14 128-30c324-74 594-206 781-381l75-70 45-67c24-37 55-95 69-128l26-61 10-77 9-77-10-72-10-72-28-67c-134-320-561-575-1120-668l-125-21-144-6-145-6 56 66c75 88 138 177 182 258l36 65-113-55-112-56-97-28c-53-15-136-34-185-42-106-17-253-30-253-22 0 3 24 39 53 80 70 97 129 213 166 323l30 90 17 99 16 100-6 95c-15 223-91 431-230 625l-36 50 15 3c29 7 228-18 318-39 117-27 272-87 360-138 37-22 67-38 67-35s-12 28-26 57c-39 76-102 172-172 258-34 43-62 79-62 81 0 6 139-2 280-18z"/></g><g fill="#252525" transform="matrix(.1 0 0 -.1 0 264)"><path d="M2530 2155c-7-8-18-14-24-13-16 3-56-21-56-34v-11l25 23 25 23v-11c0-7-5-12-11-12h-11l13-17 14-18-17 14-18 13v-22h-15c-8 0-15 5-15 11v10l-12-8c-7-4-19-8-26-9l-12-2 6 9c3 5 9 7 14 4l9-5-2 20-1 20-10-10c-6-6-14-10-19-10h-9l13 18 14 17-17-14c-10-7-16-17-13-21l5-9-22-15-22-15-13 19c-8 11-20 20-26 19l-12-1 13-5c21-8 13-19-15-21l-28-2 13 9 14 8-19 8c-10 4-25 9-33 11l-15 3-12-16-12-16-15 12-14 12-7-11-6-10 18-2c10 0 27 0 37 1l20 1-7-6c-4-4-17-8-30-9l-22-2 3-12 2-12-10 6-10 6 5 10 6 9h-8c-5 0-14-5-20-11l-10-11v52h10c6 0 8 3 4 6-3 3-15-1-27-9l-21-15 12-7 12-8-18-13-18-13-25 19-24 20-27-6-26-6 19 14 19 15-13 8-13 8 8-13 8-12-22 7-21 6 7-17 6-16-17-10-16-9 5-9 5-9-12-7-13-7 7 8 8 8-27 14-28 14-3-10c-2-6-7-11-12-11h-8l5 20 5 20h-22v-32l-15 12-15 12v-33l9 5 8 5 74-48c41-26 79-50 86-52 6-2 50-37 97-77 137-115 223-238 265-376l21-68v-166l-21-68c-128-422-711-731-1456-771l-113-6v10c0 6 7 17 16 24 48 40 192 236 235 320l19 38-73-39c-90-48-158-75-267-106-96-27-275-54-362-54h-58l53 78c73 104 102 156 143 254l35 83 25 110 26 110-5 135-5 135-21 80c-22 85-57 178-97 258l-25 48-11-7-11-7 8 13 8 12-14 9c-8 5-18 9-23 9h-8l6-15 5-15h-9c-6 0-10 8-10 17v17l-22-23-21-24-13 18-13 17-10-7c-6-3-11-13-11-21v-14h-35l15 10 15 10h-22l5 25 4 25 9-6 9-5-6-11-6-10 21 11 21 12v-26l9 15c6 8 7 18 5 22l-5 8-20-10-19-11v21l-22-4c-13-3-29-5-36-5l-13-1 7-11 7-12-27 5-26 5v-8c0-4 4-9 9-11l10-3-15-19-14-20v63l10 6c5 3 10 14 9 23l-1 17-5-13-5-12-10 6-11 7 6-10 7-10h-25c-14 0-28 3-31 8l-5 9h12c7 0 10 3 6 6-3 4-18-3-33-15-15-11-22-21-17-21s14 5 20 11l11 11 6-11 7-11H90v-32l-14 11-14 12-11-28-11-28 5 27 5 27-15-5-15-6v31l15-5 15-6v23l-17-3-17-3-8-30-7-30 11-10 11-10-8 14-8 14 12-7 12-8-15-17-16-18V0h2640v2132l-13-5-12-4 3-19 2-19-13 24-14 23-6-21-5-21h-27l11 8c6 4 14 18 17 32l6 24-24-29-24-30 4-12 4-12-15 6-15 5 14 17c8 9 18 23 22 31l9 15-17-14-17-13v14c0 8 5 19 12 26s9 12 6 12-11-7-18-15zm-289-58-12-12 7 18c3 10 9 15 12 12s0-11-7-18zm139-6c0-5-7-12-16-15l-17-6 13 15c14 17 20 19 20 6zm-350-5c0-3-4-8-10-11l-10-6v10c0 6 5 11 10 11 6 0 10-2 10-4zm227-32c-3-3-11-3-16 1l-11 6 6 11 6 10 11-11c6-6 8-13 4-17zm37 18 5-9h-28l5 9c3 4 7 8 9 8s6-4 9-8zM150 1952c0-4-12-9-27-10l-27-2 19 14c19 14 35 13 35-2zm75-22 6-10-15 6c-18 7-21 14-7 14 6 0 13-4 16-10zm-110-10c-3-5-12-10-18-10H85l15 10c19 12 23 12 15 0zm189-6 6-15-10 6c-6 3-10 10-10 16 0 14 7 11 14-7zm-164-19c-7-9-15-13-18-10-3 2 1 11 8 20s15 13 18 10c3-2-1-11-8-20zm80 11c0-2-7-6-15-10l-15-5v9c0 6 7 10 15 10s15-2 15-4zm2405 254-6-10-12 6-12 7 8-8c4-5 13-10 21-11l13-2v14c0 17-4 18-12 4zm-342-13v-14h27l-11 14c-6 7-12 13-14 13-1 0-2-6-2-13zm-466-38c7-7 15-10 18-7s-2 9-12 12l-18 7 12-12zm77-2c3-21 17-37 32-37 8 0 14 5 14 10 0 6-3 9-7 9-5-1-15-1-23 0l-15 1 13 9 14 8-15 6-15 6 2-12zm158-10c7-8 19-14 26-14h15l-19 14c-10 7-22 13-26 13h-9l13-13zm-1237-27c3-5 8-10 11-10 2 0 4 5 4 10 0 6-5 10-11 10h-10l6-10zm65-9c0-6 4-12 9-16l10-5-4-19c-5-26 2-32 83-74l73-39 7 7 7 7-17 12-18 13 7 6 6 7h-24l7 13 8 12-17-14-17-14-7 7-6 6h10c6 0 13 6 16 14l5 14-16-2c-9 0-21-7-25-14l-9-13-18 16-19 17-10-7-11-6-1 15c-1 16-4 28-9 44-1 4-2 10-1 15 0 4-3 7-9 7-5 0-10-4-10-9zm36-3 5-8 10 5c13 9 11 12-6 12h-14l5-9zm51-14c-4-4-7-19-7-33v-25l16 16 16 16-9 16-9 17-7-7zm-807-8c0-2 7-9 15-16l15-12v10c0 5-7 12-15 16-8 3-15 4-15 2zm40-5c0-6 4-13 10-16l10-6-6 15c-7 18-14 21-14 7zm671-7 1-19 5 13c3 7 2 16-1 19-3 4-6-2-5-13zm-860-10 1-19 5 13c3 7 2 16-1 19-3 4-6-2-5-13zm222 1v-14l9 5 8 5-5 10c-9 13-12 11-12-6zm-93-5-15-10h12c6 0 15 5 18 10 8 12 4 12-15 0zm190 3c0-5 5-14 11-20l12-12-17-25c-22-35-20-46 4-18l19 24 11-7 10-6-1 28v28l-9-20-9-20v13c-1 15-31 49-31 35z"/></g><g fill="#111" transform="matrix(.1 0 0 -.1 0 264)"><path d="M2600 1541v-10l15 5 15 6v-7c0-4-8-14-17-22-10-8-13-12-7-9l12 6 5-20 5-20-8 5c-5 3-11 1-15-5-8-12-45-13-45-1 0 5-7 11-15 15l-15 5v-30l13 7 12 7-12-13-12-13-14 12-14 11-13-15-12-15-17 3c-9 1-22 6-29 11l-13 8 12-21 13-20 8 12c12 18 10-1-2-24l-11-19-17 1h-17l18 8 19 7-18 14-18 15 8-15 7-15-14 18-15 17-4-17c-3-10-6-51-7-91l-2-72-24-69c-14-38-41-97-61-132l-37-64-91-91-91-91-86-56c-173-111-393-201-624-253-129-30-399-64-502-64h-73v8c0 4 19 27 41 52 71 79 150 189 193 272l25 47-62-34c-152-83-334-133-552-152l-70-5-7-12-8-11v25l-25-6-25-6v21c0 12 3 21 8 21 4 0 13 9 19 19l12 19-22 18-22 19 20-24 20-24-18 6-18 7 3-18 3-17-12 2-13 3 3-23 2-22-15 4c-8 2-26 5-40 7l-26 5-24-23c-14-13-28-24-32-24-5-1-10-3-13-4-13-6-31-5-36 3l-6 9-6-14-5-14 31-2c18-2 36-7 41-12l8-8-35 8-35 8-10-10-9-9 1 23 2 23-11 7c-5 4-16 8-24 8H27l16-18c10-10 17-23 17-28s-5-2-10 6l-10 15v-11c0-6 9-19 20-29l19-17 14 5 13 5 2-21 1-22-7 11c-4 6-19 14-34 18l-28 6v21l-9-6-10-5-7 11-7 11 14 10 14 10-13 5-12 5 6 10 7 11-10-6-10-6-2-301L-1 0h2642l-3 772-3 773-17 3-18 3v-10zM271 603l14-18-16 12-16 13-6-7-7-6 12-16 12-16-20 18-19 18 15 9 16 10c1 0 8-8 15-17zm-71-5v-13l10 15c5 8 10 12 10 8 0-3 3-13 6-21l5-14-16-7-16-6 5 9 6 9-15 6c-17 6-21 26-5 26 6 0 10-6 10-12zm2260 882c6-11 15-20 20-20h10l-17 20c-10 11-19 20-21 20-1 0 2-9 8-20zm110 5v-15h14c8 0 18 4 21 10l6 10-17-7-17-6 7 11 7 12h-10c-6 0-11-7-11-15zm-165-6c-4-6-5-12-2-15 2-3 7 2 10 11 7 17 1 20-8 4zM344 743l19-5-14-10-14-10 13 4c20 5 16 23-5 25l-18 2 19-6zm-128-53c6-8 13-22 16-30l4-14 7 11 7 10-23 19-22 19 11-15zm-27-9 14-9-8-13-8-14 13 12 12 11-6 11c-4 6-13 11-19 11h-12l14-9zM87 663c3-7 8-13 12-13s8 6 8 13v14H82l5-14zm68-3-6-10h10c6 0 11 5 11 10 0 6-2 10-4 10-3 0-8-4-11-10zm100 0-8-12 14-9c18-11 23-4 11 17l-9 17-8-13zM45 630l-6-10h15c9 0 16 5 16 10 0 6-4 10-9 10-6 0-13-4-16-10zm102 4 12-5-6-17c-7-18-5-17 16 11l13 17-23-1-24-1 12-4z"/></g></g></svg>